<?xml version="1.0" encoding="utf-8"?>
<!-- Generator: Adobe Illustrator 19.2.1, SVG Export Plug-In . SVG Version: 6.00 Build 0)  -->
<svg version="1.1" id="Layer_1" xmlns="http://www.w3.org/2000/svg" xmlns:xlink="http://www.w3.org/1999/xlink" x="0px" y="0px"
	 viewBox="0 0 86.7 60.4" style="enable-background:new 0 0 86.7 60.4;" xml:space="preserve">
<style type="text/css">
	.st0{clip-path:url(#SVGID_2_);}
	.st1{fill:#FFFFFF;}
	.st2{fill:#ED1C29;}
	.st3{clip-path:url(#SVGID_4_);}
	.st4{fill:#EA1C28;}
	.st5{fill:#E91B28;}
	.st6{fill:#E71B28;}
	.st7{fill:#E61B28;}
	.st8{fill:#E51B27;}
	.st9{fill:#E41B27;}
	.st10{fill:#E21A27;}
	.st11{fill:#E11A27;}
	.st12{fill:#E01A26;}
	.st13{fill:#DF1A26;}
	.st14{fill:#DE1A26;}
	.st15{fill:#DD1A26;}
	.st16{fill:#DC1926;}
	.st17{fill:#DB1925;}
	.st18{fill:#D91925;}
	.st19{fill:#D81925;}
	.st20{fill:#D71925;}
	.st21{fill:#D61824;}
	.st22{fill:#D51824;}
	.st23{fill:#D41824;}
	.st24{fill:#D21824;}
	.st25{fill:#D01723;}
	.st26{fill:#CF1723;}
	.st27{fill:#CE1723;}
	.st28{fill:#CD1722;}
	.st29{fill:#CC1722;}
	.st30{fill:#CB1622;}
	.st31{fill:#C91621;}
	.st32{fill:#C71621;}
	.st33{fill:#C61621;}
	.st34{fill:#C51520;}
	.st35{fill:#C31520;}
	.st36{fill:#C1141F;}
	.st37{fill:#C0141F;}
	.st38{fill:#BF141F;}
	.st39{fill:#BE141E;}
	.st40{fill:#BD131E;}
	.st41{fill:#BC131E;}
	.st42{fill:#BA131D;}
	.st43{fill:#B8121D;}
	.st44{fill:#B7121C;}
	.st45{fill:#B6121C;}
	.st46{fill:#B5121C;}
	.st47{fill:#B3111B;}
	.st48{fill:#B1101A;}
	.st49{fill:#B0101A;}
	.st50{fill:#AF101A;}
	.st51{fill:#AE1019;}
	.st52{fill:#AC0F19;}
	.st53{fill:#AC0F18;}
	.st54{fill:#AA0E18;}
	.st55{fill:#A80E17;}
	.st56{fill:#A70D17;}
	.st57{fill:#A60D16;}
	.st58{fill:#A50D16;}
	.st59{fill:#A30C15;}
	.st60{fill:#A10B14;}
	.st61{fill:#9F0A14;}
	.st62{fill:#9E0A13;}
	.st63{fill:#9D0A13;}
	.st64{fill:#9B0912;}
	.st65{fill:#990811;}
	.st66{fill:#980810;}
	.st67{fill:#970710;}
	.st68{fill:#96070F;}
	.st69{fill:#95060F;}
	.st70{fill:#94060E;}
	.st71{fill:#93050D;}
	.st72{fill:#92050D;}
	.st73{fill:#90040C;}
	.st74{fill:#8E040B;}
	.st75{fill:#8E030B;}
	.st76{fill:#8C030A;}
	.st77{fill:#8B0209;}
	.st78{fill:#8A0208;}
	.st79{fill:#890108;}
	.st80{fill:#880107;}
	.st81{fill:#870006;}
	.st82{fill:#860006;}
	.st83{fill:#850005;}
	.st84{fill:#840004;}
	.st85{fill:#830004;}
	.st86{fill:#820003;}
	.st87{fill:#810003;}
	.st88{fill:#800002;}
	.st89{fill:#7F0001;}
	.st90{fill:#7D0001;}
	.st91{fill:#7D0000;}
	.st92{fill:#7C0000;}
	.st93{fill:#7B0000;}
	.st94{clip-path:url(#SVGID_6_);}
	.st95{fill:url(#SVGID_7_);}
	.st96{clip-path:url(#SVGID_9_);}
	.st97{fill:url(#SVGID_10_);}
	.st98{clip-path:url(#SVGID_12_);}
	.st99{fill:url(#SVGID_13_);}
	.st100{clip-path:url(#SVGID_15_);}
	.st101{fill:url(#SVGID_16_);}
	.st102{clip-path:url(#SVGID_18_);}
	.st103{fill:url(#SVGID_19_);}
	.st104{clip-path:url(#SVGID_21_);}
	.st105{fill:url(#SVGID_22_);}
	.st106{clip-path:url(#SVGID_24_);}
	.st107{fill:url(#SVGID_25_);}
	.st108{clip-path:url(#SVGID_27_);}
	.st109{fill:url(#SVGID_28_);}
	.st110{clip-path:url(#SVGID_30_);}
	.st111{fill:url(#SVGID_31_);}
	.st112{clip-path:url(#SVGID_33_);}
	.st113{fill:url(#SVGID_34_);}
	.st114{clip-path:url(#SVGID_36_);}
	.st115{fill:url(#SVGID_37_);}
	.st116{clip-path:url(#SVGID_39_);}
	.st117{fill:#ED1E29;}
	.st118{fill:#ED202A;}
	.st119{fill:#EE222A;}
	.st120{fill:#EE242B;}
	.st121{fill:#EE262B;}
	.st122{fill:#EE272C;}
	.st123{fill:#EE292C;}
	.st124{fill:#EE2B2D;}
	.st125{fill:#EE2C2D;}
	.st126{fill:#EE2E2E;}
	.st127{fill:#EE2F2E;}
	.st128{fill:#EE312F;}
	.st129{fill:#EE332F;}
	.st130{fill:#EE3430;}
	.st131{fill:#EE3530;}
	.st132{fill:#EF3731;}
	.st133{fill:#EF3832;}
	.st134{fill:#EF3A32;}
	.st135{fill:#EF3B33;}
	.st136{fill:#EF3D33;}
	.st137{fill:#EF3E34;}
	.st138{fill:#EF3F34;}
	.st139{fill:#EF4035;}
	.st140{fill:#EF4136;}
	.st141{fill:#EF4236;}
	.st142{fill:#EF4437;}
	.st143{fill:#EF4538;}
	.st144{fill:#EF4638;}
	.st145{fill:#EF4739;}
	.st146{fill:#F04839;}
	.st147{fill:#F0493A;}
	.st148{fill:#F04A3B;}
	.st149{fill:#F04B3C;}
	.st150{fill:#F04D3C;}
	.st151{fill:#F04E3D;}
	.st152{fill:#F04F3E;}
	.st153{fill:#F0503E;}
	.st154{fill:#F0513F;}
	.st155{fill:#F05240;}
	.st156{fill:#F05341;}
	.st157{fill:#F05441;}
	.st158{fill:#F15542;}
	.st159{fill:#F15643;}
	.st160{fill:#F15743;}
	.st161{fill:#F15844;}
	.st162{fill:#F15945;}
	.st163{fill:#F15A46;}
	.st164{fill:#F15B46;}
	.st165{fill:#F15C47;}
	.st166{fill:#F15D48;}
	.st167{fill:#F15E49;}
	.st168{fill:#F15F49;}
	.st169{fill:#F1604A;}
	.st170{fill:#F1614B;}
	.st171{fill:#F1624C;}
	.st172{fill:#F2634C;}
	.st173{fill:#F2644D;}
	.st174{fill:#F2654E;}
	.st175{fill:#F2664F;}
	.st176{fill:#F2674F;}
	.st177{fill:#F26850;}
	.st178{fill:#F26851;}
	.st179{fill:#F26952;}
	.st180{fill:#F26A52;}
	.st181{fill:#F26B53;}
	.st182{fill:#F26C54;}
	.st183{fill:#F26D55;}
	.st184{fill:#F36E55;}
	.st185{fill:#F36F56;}
	.st186{fill:#F37057;}
	.st187{fill:#F37158;}
	.st188{clip-path:url(#SVGID_41_);}
	.st189{fill:url(#SVGID_42_);}
	.st190{clip-path:url(#SVGID_44_);}
	.st191{fill:url(#SVGID_45_);}
	.st192{clip-path:url(#SVGID_47_);}
	.st193{fill:url(#SVGID_48_);}
	.st194{clip-path:url(#SVGID_50_);}
	.st195{fill:url(#SVGID_51_);}
	.st196{clip-path:url(#SVGID_53_);}
	.st197{fill:url(#SVGID_54_);}
	.st198{clip-path:url(#SVGID_56_);}
	.st199{fill:url(#SVGID_57_);}
	.st200{clip-path:url(#SVGID_59_);}
	.st201{fill:url(#SVGID_60_);}
	.st202{clip-path:url(#SVGID_62_);}
	.st203{fill:url(#SVGID_63_);}
	.st204{clip-path:url(#SVGID_65_);}
	.st205{fill:url(#SVGID_66_);}
	.st206{clip-path:url(#SVGID_68_);}
	.st207{fill:url(#SVGID_69_);}
	.st208{clip-path:url(#SVGID_71_);}
</style>
<title>Logo-Vertical-RightNegative-01</title>
<rect x="86.1" y="0" width="0.6" height="60.4"/>
<polygon points="0,0 0,60.4 41.3,60.4 41.3,0 "/>
<g>
	<g>
		<defs>
			<rect id="SVGID_1_" y="0" width="86.7" height="60.4"/>
		</defs>
		<clipPath id="SVGID_2_">
			<use xlink:href="#SVGID_1_"  style="overflow:visible;"/>
		</clipPath>
		<g class="st0">
			<path class="st1" d="M8.1,45.9l-0.2-1L5,45v1.5l0.8,0.1v8h2.7v-6.5c0.5-0.7,1.3-1.2,2.2-1.2s1.4,0.7,1.4,2.1v5.6h2.7v-6.1
				c0-2.6-1.2-3.9-3.5-3.9C10.1,44.6,8.9,45,8.1,45.9"/>
			<path class="st1" d="M31.8,46.9c1.1,0,1.6,0.9,1.6,2.8c0,1.3-0.4,3-2.3,3c-0.5,0-1.1-0.1-1.6-0.3v-4.2
				C30.1,47.4,30.9,47,31.8,46.9 M25.9,41.2v1.5l1,0.1v11.3c1.3,0.4,2.6,0.6,4,0.6c3.4,0,5.3-2,5.3-5.4c0-2.9-1.5-4.8-4-4.8
				c-1,0-2,0.3-2.7,1v-4.6L25.9,41.2z"/>
			<path class="st1" d="M16.9,45.2l-0.1,0.1l0.5,2l0.2-0.1c0.9-0.3,1.8-0.5,2.7-0.5c1.5,0,1.8,0.5,1.8,1.6v0.3h-1
				c-3.2,0-4.9,1.1-4.9,3.2c0,1.9,1.3,3,3.4,3c1,0,2.1-0.3,2.9-1l0.1,0.8l3-0.1V53l-0.9-0.1v-4.8c0-2.3-1.3-3.5-4.1-3.5
				C19.2,44.6,18,44.8,16.9,45.2 M18.7,51.7c0-0.5,0.2-1.2,2.1-1.2h1V52c-0.5,0.5-1.2,0.8-1.9,0.8c-0.6,0.1-1.1-0.3-1.2-0.9
				C18.7,51.9,18.7,51.8,18.7,51.7"/>
			<path class="st2" d="M24.1,5.4l-5.4,6.7L11,8.4c-0.2-0.1-0.4-0.1-0.5,0s-0.2,0.3-0.1,0.5l1.8,8.4L4.4,21c-0.2,0-0.4,0.2-0.3,0.5
				c0,0.2,0.2,0.3,0.3,0.3l7.7,3.8L10.2,34c-0.1,0.2,0,0.4,0.1,0.5c0.2,0.1,0.4,0.1,0.5,0l7.7-3.6l5.4,6.7c0.1,0.2,0.3,0.3,0.5,0.2
				s0.3-0.2,0.3-0.4l1.9-8.4h8.6c0.2,0.1,0.4,0,0.5-0.3c0.1-0.2,0-0.4-0.2-0.5l-5.3-6.7l5.4-6.7c0.1-0.1,0.2-0.3,0.2-0.5
				c-0.1-0.2-0.3-0.2-0.5-0.2h-2.2c-0.2,0-0.3,0.1-0.4,0.2l-8.1,8.6C24.5,23,24.5,23,24.4,23s0-0.1,0-0.2l6.9-8.4c0-0.1,0-0.1,0-0.2
				c0-0.1-0.1-0.1-0.2-0.1h-2.8c-0.2,0-0.4,0.1-0.6,0.3c-1.3,1.4-7.8,8.3-8,8.5s0,0.1-0.1,0.1s0-0.1,0-0.2l6.8-8.2
				c0.1-0.1,0.2-0.3,0.2-0.5c0-0.1-1.8-8.3-1.9-8.4c0-0.2-0.1-0.4-0.4-0.4c-0.2,0-0.4,0.1-0.4,0.3"/>
		</g>
	</g>
</g>
</svg>
